G04 #@! TF.GenerationSoftware,KiCad,Pcbnew,8.0.7*
G04 #@! TF.CreationDate,2026-01-30T11:33:38+09:00*
G04 #@! TF.ProjectId,DMR Arduino ID V4-2PNLZ,444d5220-4172-4647-9569-6e6f20494420,rev?*
G04 #@! TF.SameCoordinates,Original*
G04 #@! TF.FileFunction,Soldermask,Bot*
G04 #@! TF.FilePolarity,Negative*
%FSLAX46Y46*%
G04 Gerber Fmt 4.6, Leading zero omitted, Abs format (unit mm)*
G04 Created by KiCad (PCBNEW 8.0.7) date 2026-01-30 11:33:38*
%MOMM*%
%LPD*%
G01*
G04 APERTURE LIST*
G04 Aperture macros list*
%AMRoundRect*
0 Rectangle with rounded corners*
0 $1 Rounding radius*
0 $2 $3 $4 $5 $6 $7 $8 $9 X,Y pos of 4 corners*
0 Add a 4 corners polygon primitive as box body*
4,1,4,$2,$3,$4,$5,$6,$7,$8,$9,$2,$3,0*
0 Add four circle primitives for the rounded corners*
1,1,$1+$1,$2,$3*
1,1,$1+$1,$4,$5*
1,1,$1+$1,$6,$7*
1,1,$1+$1,$8,$9*
0 Add four rect primitives between the rounded corners*
20,1,$1+$1,$2,$3,$4,$5,0*
20,1,$1+$1,$4,$5,$6,$7,0*
20,1,$1+$1,$6,$7,$8,$9,0*
20,1,$1+$1,$8,$9,$2,$3,0*%
G04 Aperture macros list end*
%ADD10C,1.600000*%
%ADD11RoundRect,0.102000X0.654000X0.654000X-0.654000X0.654000X-0.654000X-0.654000X0.654000X-0.654000X0*%
%ADD12C,1.512000*%
%ADD13C,1.400000*%
%ADD14O,1.400000X1.400000*%
%ADD15RoundRect,0.250000X-0.600000X0.600000X-0.600000X-0.600000X0.600000X-0.600000X0.600000X0.600000X0*%
%ADD16C,1.700000*%
%ADD17C,7.000000*%
%ADD18R,1.800000X1.800000*%
%ADD19C,1.800000*%
%ADD20R,1.700000X1.700000*%
%ADD21O,1.700000X1.700000*%
%ADD22R,1.500000X1.500000*%
%ADD23C,1.500000*%
%ADD24C,1.260000*%
%ADD25O,1.500000X1.500000*%
%ADD26R,1.600000X1.600000*%
%ADD27R,2.000000X1.905000*%
%ADD28O,2.000000X1.905000*%
%ADD29C,1.200000*%
%ADD30C,1.780000*%
%ADD31O,1.600000X1.600000*%
%ADD32C,1.507998*%
G04 APERTURE END LIST*
D10*
X108100000Y-97700000D03*
X113100000Y-97700000D03*
D11*
X157100000Y-120220000D03*
D12*
X157100000Y-117680000D03*
X157100000Y-115140000D03*
X157100000Y-112600000D03*
X157100000Y-110060000D03*
X157100000Y-107520000D03*
X157100000Y-104980000D03*
X157100000Y-102440000D03*
X139066000Y-102440000D03*
X139066000Y-104980000D03*
X139066000Y-107520000D03*
X139066000Y-110060000D03*
X139066000Y-112600000D03*
X139066000Y-115140000D03*
X139066000Y-117680000D03*
X139066000Y-120220000D03*
D13*
X134400000Y-116790000D03*
D14*
X134400000Y-124410000D03*
D15*
X137480000Y-127060000D03*
D16*
X137480000Y-129600000D03*
X134940000Y-127060000D03*
X134940000Y-129600000D03*
X132400000Y-127060000D03*
X132400000Y-129600000D03*
X129860000Y-127060000D03*
X129860000Y-129600000D03*
X127320000Y-127060000D03*
X127320000Y-129600000D03*
X124780000Y-127060000D03*
X124780000Y-129600000D03*
X122240000Y-127060000D03*
X122240000Y-129600000D03*
X119700000Y-127060000D03*
X119700000Y-129600000D03*
X117160000Y-127060000D03*
X117160000Y-129600000D03*
X114620000Y-127060000D03*
X114620000Y-129600000D03*
D10*
X184100000Y-106200000D03*
X184100000Y-101200000D03*
D13*
X176710000Y-114100000D03*
D14*
X169090000Y-114100000D03*
D17*
X196400000Y-93500000D03*
D10*
X128700000Y-100300000D03*
X128700000Y-95300000D03*
D18*
X158560000Y-134300000D03*
D19*
X161100000Y-134300000D03*
D17*
X104400000Y-93500000D03*
D13*
X173500000Y-104280000D03*
D14*
X173500000Y-111900000D03*
D20*
X107700000Y-127100000D03*
D21*
X105160000Y-127100000D03*
X107700000Y-124560000D03*
X105160000Y-124560000D03*
X107700000Y-122020000D03*
X105160000Y-122020000D03*
D13*
X103090000Y-118900000D03*
D14*
X110710000Y-118900000D03*
D13*
X161000000Y-111200000D03*
D14*
X161000000Y-118820000D03*
D13*
X141700000Y-120300000D03*
D14*
X141700000Y-112680000D03*
D22*
X174800000Y-100100000D03*
D23*
X172260000Y-100100000D03*
X169720000Y-100100000D03*
D24*
X104375000Y-103600000D03*
X106915000Y-101060000D03*
X109455000Y-103600000D03*
D13*
X144000000Y-126690000D03*
D14*
X144000000Y-134310000D03*
D20*
X169440000Y-92700000D03*
D21*
X166900000Y-92700000D03*
D22*
X197400000Y-117380000D03*
D25*
X197400000Y-107220000D03*
D22*
X103260000Y-115600000D03*
D23*
X105800000Y-115600000D03*
X108340000Y-115600000D03*
D26*
X129200000Y-114000000D03*
D10*
X131700000Y-114000000D03*
D20*
X184560000Y-115780000D03*
D21*
X187100000Y-115780000D03*
X184560000Y-118320000D03*
X187100000Y-118320000D03*
X184560000Y-120860000D03*
X187100000Y-120860000D03*
X184560000Y-123400000D03*
X187100000Y-123400000D03*
X184560000Y-125940000D03*
X187100000Y-125940000D03*
D10*
X169800000Y-96500000D03*
X174800000Y-96500000D03*
D26*
X195194888Y-103000000D03*
D10*
X197694888Y-103000000D03*
D22*
X174980000Y-125100000D03*
D23*
X172440000Y-125100000D03*
X169900000Y-125100000D03*
D13*
X176410000Y-121900000D03*
D14*
X168790000Y-121900000D03*
D17*
X196400000Y-134500000D03*
D13*
X191200000Y-129390000D03*
D14*
X191200000Y-137010000D03*
D24*
X153860000Y-94060000D03*
X156400000Y-96600000D03*
X153860000Y-99140000D03*
D20*
X195300000Y-128700000D03*
D21*
X197840000Y-128700000D03*
D27*
X194745000Y-114640000D03*
D28*
X194745000Y-112100000D03*
X194745000Y-109560000D03*
D10*
X188900000Y-129200000D03*
X183900000Y-129200000D03*
D29*
X134500000Y-95500000D03*
X136500000Y-95500000D03*
D13*
X118480000Y-114900000D03*
D14*
X126100000Y-114900000D03*
D13*
X181600000Y-111500000D03*
D14*
X181600000Y-119120000D03*
D13*
X128700000Y-102390000D03*
D14*
X128700000Y-110010000D03*
D22*
X148866000Y-113640000D03*
D23*
X146326000Y-113640000D03*
X143786000Y-113640000D03*
D13*
X151336000Y-104540000D03*
D14*
X143716000Y-104540000D03*
D10*
X111700000Y-121500000D03*
X116700000Y-121500000D03*
D13*
X132600000Y-108210000D03*
D14*
X132600000Y-100590000D03*
D13*
X169800000Y-104100000D03*
D14*
X169800000Y-111720000D03*
D30*
X163800000Y-96100000D03*
X163800000Y-136740000D03*
X179040000Y-96100000D03*
X179040000Y-136740000D03*
D26*
X163800000Y-98640000D03*
D31*
X163800000Y-101180000D03*
X163800000Y-103720000D03*
X163800000Y-106260000D03*
X163800000Y-108800000D03*
X163800000Y-111340000D03*
X163800000Y-113880000D03*
X163800000Y-116420000D03*
X163800000Y-118960000D03*
X163800000Y-121500000D03*
X163800000Y-124040000D03*
X163800000Y-126580000D03*
X163800000Y-129120000D03*
X163800000Y-131660000D03*
X163800000Y-134200000D03*
X179040000Y-134200000D03*
X179040000Y-131660000D03*
X179040000Y-129120000D03*
X179040000Y-126580000D03*
X179040000Y-124040000D03*
X179040000Y-121500000D03*
X179040000Y-118960000D03*
X179040000Y-116420000D03*
X179040000Y-113880000D03*
X179040000Y-111340000D03*
X179040000Y-108800000D03*
X179040000Y-106260000D03*
X179040000Y-103720000D03*
X179040000Y-101180000D03*
X179040000Y-98640000D03*
D10*
X194000000Y-125600000D03*
X199000000Y-125600000D03*
D20*
X187100000Y-104540000D03*
D21*
X187100000Y-102000000D03*
D17*
X104400000Y-134500000D03*
D10*
X154466000Y-119940000D03*
X149466000Y-119940000D03*
D18*
X187475000Y-110300000D03*
D19*
X184935000Y-110300000D03*
D13*
X132310000Y-124500000D03*
D14*
X124690000Y-124500000D03*
D26*
X143726000Y-107465000D03*
D31*
X143726000Y-110005000D03*
X151346000Y-110005000D03*
X151346000Y-107465000D03*
D22*
X142380000Y-124200000D03*
D25*
X150000000Y-124200000D03*
D13*
X190000000Y-108620000D03*
D14*
X190000000Y-101000000D03*
D13*
X155700000Y-130920000D03*
D14*
X155700000Y-123300000D03*
D13*
X166400000Y-117310000D03*
D14*
X166400000Y-109690000D03*
D13*
X175900000Y-111600000D03*
D14*
X175900000Y-103980000D03*
D26*
X118300000Y-102280000D03*
D10*
X118300000Y-104820000D03*
X118300000Y-107360000D03*
X118300000Y-109900000D03*
X125920000Y-109900000D03*
X125920000Y-107360000D03*
X125920000Y-104820000D03*
X125920000Y-102280000D03*
D22*
X169220000Y-118600000D03*
D23*
X171760000Y-118600000D03*
X174300000Y-118600000D03*
D18*
X187100000Y-135300000D03*
D19*
X184560000Y-135300000D03*
D20*
X160266000Y-102015000D03*
D21*
X160266000Y-99475000D03*
D10*
X115400000Y-107300000D03*
X115400000Y-112300000D03*
D13*
X181700000Y-125790000D03*
D14*
X181700000Y-133410000D03*
D10*
X181700000Y-96800000D03*
X181700000Y-101800000D03*
X193900000Y-98900000D03*
X198900000Y-98900000D03*
D13*
X115500000Y-97200000D03*
D14*
X115500000Y-104820000D03*
D32*
X184599998Y-91999999D03*
X191100000Y-91999999D03*
X184599998Y-96500000D03*
X191100000Y-96500000D03*
D26*
X195094888Y-121500000D03*
D10*
X197594888Y-121500000D03*
X113380000Y-118100000D03*
D31*
X121000000Y-118100000D03*
D13*
X167480000Y-129100000D03*
D14*
X175100000Y-129100000D03*
D13*
X159100000Y-130920000D03*
D14*
X159100000Y-123300000D03*
D10*
X154466000Y-70940000D03*
X149466000Y-70940000D03*
D13*
X132310000Y-75500000D03*
D14*
X124690000Y-75500000D03*
D18*
X187475000Y-61300000D03*
D19*
X184935000Y-61300000D03*
D20*
X187100000Y-55540000D03*
D21*
X187100000Y-53000000D03*
D10*
X194000000Y-76600000D03*
X199000000Y-76600000D03*
D17*
X104400000Y-85500000D03*
D22*
X142380000Y-75200000D03*
D25*
X150000000Y-75200000D03*
D26*
X143726000Y-58465000D03*
D31*
X143726000Y-61005000D03*
X151346000Y-61005000D03*
X151346000Y-58465000D03*
D13*
X115500000Y-48200000D03*
D14*
X115500000Y-55820000D03*
D32*
X184599998Y-42999999D03*
X191100000Y-42999999D03*
X184599998Y-47500000D03*
X191100000Y-47500000D03*
D13*
X159100000Y-81920000D03*
D14*
X159100000Y-74300000D03*
D10*
X193900000Y-49900000D03*
X198900000Y-49900000D03*
D13*
X167480000Y-80100000D03*
D14*
X175100000Y-80100000D03*
D20*
X160266000Y-53015000D03*
D21*
X160266000Y-50475000D03*
D10*
X113380000Y-69100000D03*
D31*
X121000000Y-69100000D03*
D10*
X181700000Y-47800000D03*
X181700000Y-52800000D03*
D18*
X187100000Y-86300000D03*
D19*
X184560000Y-86300000D03*
D26*
X195094888Y-72500000D03*
D10*
X197594888Y-72500000D03*
D13*
X155700000Y-81920000D03*
D14*
X155700000Y-74300000D03*
D10*
X115400000Y-58300000D03*
X115400000Y-63300000D03*
D13*
X175900000Y-62600000D03*
D14*
X175900000Y-54980000D03*
D13*
X166400000Y-68310000D03*
D14*
X166400000Y-60690000D03*
D13*
X181700000Y-76790000D03*
D14*
X181700000Y-84410000D03*
D22*
X169220000Y-69600000D03*
D23*
X171760000Y-69600000D03*
X174300000Y-69600000D03*
D13*
X190000000Y-59620000D03*
D14*
X190000000Y-52000000D03*
D26*
X118300000Y-53280000D03*
D10*
X118300000Y-55820000D03*
X118300000Y-58360000D03*
X118300000Y-60900000D03*
X125920000Y-60900000D03*
X125920000Y-58360000D03*
X125920000Y-55820000D03*
X125920000Y-53280000D03*
D20*
X107700000Y-78100000D03*
D21*
X105160000Y-78100000D03*
X107700000Y-75560000D03*
X105160000Y-75560000D03*
X107700000Y-73020000D03*
X105160000Y-73020000D03*
D13*
X173500000Y-55280000D03*
D14*
X173500000Y-62900000D03*
D17*
X104400000Y-44500000D03*
D24*
X104375000Y-54600000D03*
X106915000Y-52060000D03*
X109455000Y-54600000D03*
D13*
X144000000Y-77690000D03*
D14*
X144000000Y-85310000D03*
D10*
X128700000Y-51300000D03*
X128700000Y-46300000D03*
D18*
X158560000Y-85300000D03*
D19*
X161100000Y-85300000D03*
D22*
X174800000Y-51100000D03*
D23*
X172260000Y-51100000D03*
X169720000Y-51100000D03*
D17*
X196400000Y-44500000D03*
D13*
X103090000Y-69900000D03*
D14*
X110710000Y-69900000D03*
D13*
X141700000Y-71300000D03*
D14*
X141700000Y-63680000D03*
D13*
X176710000Y-65100000D03*
D14*
X169090000Y-65100000D03*
D13*
X161000000Y-62200000D03*
D14*
X161000000Y-69820000D03*
D13*
X134400000Y-67790000D03*
D14*
X134400000Y-75410000D03*
D11*
X157100000Y-71220000D03*
D12*
X157100000Y-68680000D03*
X157100000Y-66140000D03*
X157100000Y-63600000D03*
X157100000Y-61060000D03*
X157100000Y-58520000D03*
X157100000Y-55980000D03*
X157100000Y-53440000D03*
X139066000Y-53440000D03*
X139066000Y-55980000D03*
X139066000Y-58520000D03*
X139066000Y-61060000D03*
X139066000Y-63600000D03*
X139066000Y-66140000D03*
X139066000Y-68680000D03*
X139066000Y-71220000D03*
D10*
X184100000Y-57200000D03*
X184100000Y-52200000D03*
D15*
X137480000Y-78060000D03*
D16*
X137480000Y-80600000D03*
X134940000Y-78060000D03*
X134940000Y-80600000D03*
X132400000Y-78060000D03*
X132400000Y-80600000D03*
X129860000Y-78060000D03*
X129860000Y-80600000D03*
X127320000Y-78060000D03*
X127320000Y-80600000D03*
X124780000Y-78060000D03*
X124780000Y-80600000D03*
X122240000Y-78060000D03*
X122240000Y-80600000D03*
X119700000Y-78060000D03*
X119700000Y-80600000D03*
X117160000Y-78060000D03*
X117160000Y-80600000D03*
X114620000Y-78060000D03*
X114620000Y-80600000D03*
D10*
X108100000Y-48700000D03*
X113100000Y-48700000D03*
D30*
X163800000Y-47100000D03*
X163800000Y-87740000D03*
X179040000Y-47100000D03*
X179040000Y-87740000D03*
D26*
X163800000Y-49640000D03*
D31*
X163800000Y-52180000D03*
X163800000Y-54720000D03*
X163800000Y-57260000D03*
X163800000Y-59800000D03*
X163800000Y-62340000D03*
X163800000Y-64880000D03*
X163800000Y-67420000D03*
X163800000Y-69960000D03*
X163800000Y-72500000D03*
X163800000Y-75040000D03*
X163800000Y-77580000D03*
X163800000Y-80120000D03*
X163800000Y-82660000D03*
X163800000Y-85200000D03*
X179040000Y-85200000D03*
X179040000Y-82660000D03*
X179040000Y-80120000D03*
X179040000Y-77580000D03*
X179040000Y-75040000D03*
X179040000Y-72500000D03*
X179040000Y-69960000D03*
X179040000Y-67420000D03*
X179040000Y-64880000D03*
X179040000Y-62340000D03*
X179040000Y-59800000D03*
X179040000Y-57260000D03*
X179040000Y-54720000D03*
X179040000Y-52180000D03*
X179040000Y-49640000D03*
D13*
X181600000Y-62500000D03*
D14*
X181600000Y-70120000D03*
D13*
X151336000Y-55540000D03*
D14*
X143716000Y-55540000D03*
D29*
X134500000Y-46500000D03*
X136500000Y-46500000D03*
D10*
X111700000Y-72500000D03*
X116700000Y-72500000D03*
D22*
X148866000Y-64640000D03*
D23*
X146326000Y-64640000D03*
X143786000Y-64640000D03*
D13*
X128700000Y-53390000D03*
D14*
X128700000Y-61010000D03*
D13*
X118480000Y-65900000D03*
D14*
X126100000Y-65900000D03*
D13*
X169800000Y-55100000D03*
D14*
X169800000Y-62720000D03*
D10*
X188900000Y-80200000D03*
X183900000Y-80200000D03*
D13*
X132600000Y-59210000D03*
D14*
X132600000Y-51590000D03*
D27*
X194745000Y-65640000D03*
D28*
X194745000Y-63100000D03*
X194745000Y-60560000D03*
D20*
X195300000Y-79700000D03*
D21*
X197840000Y-79700000D03*
D13*
X191200000Y-80390000D03*
D14*
X191200000Y-88010000D03*
D17*
X196400000Y-85500000D03*
D24*
X153860000Y-45060000D03*
X156400000Y-47600000D03*
X153860000Y-50140000D03*
D13*
X176410000Y-72900000D03*
D14*
X168790000Y-72900000D03*
D22*
X103260000Y-66600000D03*
D23*
X105800000Y-66600000D03*
X108340000Y-66600000D03*
D22*
X197400000Y-68380000D03*
D25*
X197400000Y-58220000D03*
D10*
X169800000Y-47500000D03*
X174800000Y-47500000D03*
D22*
X174980000Y-76100000D03*
D23*
X172440000Y-76100000D03*
X169900000Y-76100000D03*
D20*
X184560000Y-66780000D03*
D21*
X187100000Y-66780000D03*
X184560000Y-69320000D03*
X187100000Y-69320000D03*
X184560000Y-71860000D03*
X187100000Y-71860000D03*
X184560000Y-74400000D03*
X187100000Y-74400000D03*
X184560000Y-76940000D03*
X187100000Y-76940000D03*
D26*
X129200000Y-65000000D03*
D10*
X131700000Y-65000000D03*
D20*
X169440000Y-43700000D03*
D21*
X166900000Y-43700000D03*
D26*
X195194888Y-54000000D03*
D10*
X197694888Y-54000000D03*
M02*
