%TF.GenerationSoftware,KiCad,Pcbnew,8.0.7*%
%TF.CreationDate,2026-01-30T11:33:53+09:00*%
%TF.ProjectId,DMR Arduino ID V4-2PNLZ,444d5220-4172-4647-9569-6e6f20494420,rev?*%
%TF.SameCoordinates,Original*%
%TF.FileFunction,Drillmap*%
%TF.FilePolarity,Positive*%
%FSLAX45Y45*%
G04 Gerber Fmt 4.5, Leading zero omitted, Abs format (unit mm)*
G04 Created by KiCad (PCBNEW 8.0.7) date 2026-01-30 11:33:53*
%MOMM*%
%LPD*%
G01*
G04 APERTURE LIST*
%ADD10C,0.050000*%
%ADD11C,0.200000*%
%ADD12C,0.178000*%
G04 APERTURE END LIST*
D10*
X9900000Y-8950000D02*
X20350000Y-8950000D01*
X10050000Y-4050000D02*
X20050000Y-4050000D01*
X20050000Y-13850000D01*
X10050000Y-13850000D01*
X10050000Y-4050000D01*
D11*
D12*
X16291000Y-4621000D02*
X16469000Y-4799000D01*
X16469000Y-4621000D02*
X16291000Y-4799000D01*
X16291000Y-8685000D02*
X16469000Y-8863000D01*
X16469000Y-8685000D02*
X16291000Y-8863000D01*
X16291000Y-9521000D02*
X16469000Y-9699000D01*
X16469000Y-9521000D02*
X16291000Y-9699000D01*
X16291000Y-13585000D02*
X16469000Y-13763000D01*
X16469000Y-13585000D02*
X16291000Y-13763000D01*
X17815000Y-4621000D02*
X17993000Y-4799000D01*
X17993000Y-4621000D02*
X17815000Y-4799000D01*
X17815000Y-8685000D02*
X17993000Y-8863000D01*
X17993000Y-8685000D02*
X17815000Y-8863000D01*
X17815000Y-9521000D02*
X17993000Y-9699000D01*
X17993000Y-9521000D02*
X17815000Y-9699000D01*
X17815000Y-13585000D02*
X17993000Y-13763000D01*
X17993000Y-13585000D02*
X17815000Y-13763000D01*
D11*
X10158277Y-14163984D02*
X10158277Y-13963984D01*
X10158277Y-13963984D02*
X10205896Y-13963984D01*
X10205896Y-13963984D02*
X10234467Y-13973508D01*
X10234467Y-13973508D02*
X10253515Y-13992555D01*
X10253515Y-13992555D02*
X10263039Y-14011603D01*
X10263039Y-14011603D02*
X10272563Y-14049698D01*
X10272563Y-14049698D02*
X10272563Y-14078269D01*
X10272563Y-14078269D02*
X10263039Y-14116365D01*
X10263039Y-14116365D02*
X10253515Y-14135412D01*
X10253515Y-14135412D02*
X10234467Y-14154460D01*
X10234467Y-14154460D02*
X10205896Y-14163984D01*
X10205896Y-14163984D02*
X10158277Y-14163984D01*
X10358277Y-14163984D02*
X10358277Y-14030650D01*
X10358277Y-14068746D02*
X10367801Y-14049698D01*
X10367801Y-14049698D02*
X10377324Y-14040174D01*
X10377324Y-14040174D02*
X10396372Y-14030650D01*
X10396372Y-14030650D02*
X10415420Y-14030650D01*
X10482086Y-14163984D02*
X10482086Y-14030650D01*
X10482086Y-13963984D02*
X10472563Y-13973508D01*
X10472563Y-13973508D02*
X10482086Y-13983031D01*
X10482086Y-13983031D02*
X10491610Y-13973508D01*
X10491610Y-13973508D02*
X10482086Y-13963984D01*
X10482086Y-13963984D02*
X10482086Y-13983031D01*
X10605896Y-14163984D02*
X10586848Y-14154460D01*
X10586848Y-14154460D02*
X10577324Y-14135412D01*
X10577324Y-14135412D02*
X10577324Y-13963984D01*
X10710658Y-14163984D02*
X10691610Y-14154460D01*
X10691610Y-14154460D02*
X10682086Y-14135412D01*
X10682086Y-14135412D02*
X10682086Y-13963984D01*
X10939229Y-14163984D02*
X10939229Y-13963984D01*
X10939229Y-13963984D02*
X11005896Y-14106841D01*
X11005896Y-14106841D02*
X11072563Y-13963984D01*
X11072563Y-13963984D02*
X11072563Y-14163984D01*
X11253515Y-14163984D02*
X11253515Y-14059222D01*
X11253515Y-14059222D02*
X11243991Y-14040174D01*
X11243991Y-14040174D02*
X11224943Y-14030650D01*
X11224943Y-14030650D02*
X11186848Y-14030650D01*
X11186848Y-14030650D02*
X11167801Y-14040174D01*
X11253515Y-14154460D02*
X11234467Y-14163984D01*
X11234467Y-14163984D02*
X11186848Y-14163984D01*
X11186848Y-14163984D02*
X11167801Y-14154460D01*
X11167801Y-14154460D02*
X11158277Y-14135412D01*
X11158277Y-14135412D02*
X11158277Y-14116365D01*
X11158277Y-14116365D02*
X11167801Y-14097317D01*
X11167801Y-14097317D02*
X11186848Y-14087793D01*
X11186848Y-14087793D02*
X11234467Y-14087793D01*
X11234467Y-14087793D02*
X11253515Y-14078269D01*
X11348753Y-14030650D02*
X11348753Y-14230650D01*
X11348753Y-14040174D02*
X11367801Y-14030650D01*
X11367801Y-14030650D02*
X11405896Y-14030650D01*
X11405896Y-14030650D02*
X11424943Y-14040174D01*
X11424943Y-14040174D02*
X11434467Y-14049698D01*
X11434467Y-14049698D02*
X11443991Y-14068746D01*
X11443991Y-14068746D02*
X11443991Y-14125888D01*
X11443991Y-14125888D02*
X11434467Y-14144936D01*
X11434467Y-14144936D02*
X11424943Y-14154460D01*
X11424943Y-14154460D02*
X11405896Y-14163984D01*
X11405896Y-14163984D02*
X11367801Y-14163984D01*
X11367801Y-14163984D02*
X11348753Y-14154460D01*
X11529705Y-14144936D02*
X11539229Y-14154460D01*
X11539229Y-14154460D02*
X11529705Y-14163984D01*
X11529705Y-14163984D02*
X11520182Y-14154460D01*
X11520182Y-14154460D02*
X11529705Y-14144936D01*
X11529705Y-14144936D02*
X11529705Y-14163984D01*
X11529705Y-14040174D02*
X11539229Y-14049698D01*
X11539229Y-14049698D02*
X11529705Y-14059222D01*
X11529705Y-14059222D02*
X11520182Y-14049698D01*
X11520182Y-14049698D02*
X11529705Y-14040174D01*
X11529705Y-14040174D02*
X11529705Y-14059222D01*
D12*
X9719500Y-14403500D02*
X9897500Y-14581500D01*
X9897500Y-14403500D02*
X9719500Y-14581500D01*
D11*
X10263039Y-14583984D02*
X10148753Y-14583984D01*
X10205896Y-14583984D02*
X10205896Y-14383984D01*
X10205896Y-14383984D02*
X10186848Y-14412555D01*
X10186848Y-14412555D02*
X10167801Y-14431603D01*
X10167801Y-14431603D02*
X10148753Y-14441127D01*
X10348753Y-14564936D02*
X10358277Y-14574460D01*
X10358277Y-14574460D02*
X10348753Y-14583984D01*
X10348753Y-14583984D02*
X10339229Y-14574460D01*
X10339229Y-14574460D02*
X10348753Y-14564936D01*
X10348753Y-14564936D02*
X10348753Y-14583984D01*
X10424944Y-14383984D02*
X10558277Y-14383984D01*
X10558277Y-14383984D02*
X10472563Y-14583984D01*
X10663039Y-14469698D02*
X10643991Y-14460174D01*
X10643991Y-14460174D02*
X10634467Y-14450650D01*
X10634467Y-14450650D02*
X10624944Y-14431603D01*
X10624944Y-14431603D02*
X10624944Y-14422079D01*
X10624944Y-14422079D02*
X10634467Y-14403031D01*
X10634467Y-14403031D02*
X10643991Y-14393508D01*
X10643991Y-14393508D02*
X10663039Y-14383984D01*
X10663039Y-14383984D02*
X10701134Y-14383984D01*
X10701134Y-14383984D02*
X10720182Y-14393508D01*
X10720182Y-14393508D02*
X10729705Y-14403031D01*
X10729705Y-14403031D02*
X10739229Y-14422079D01*
X10739229Y-14422079D02*
X10739229Y-14431603D01*
X10739229Y-14431603D02*
X10729705Y-14450650D01*
X10729705Y-14450650D02*
X10720182Y-14460174D01*
X10720182Y-14460174D02*
X10701134Y-14469698D01*
X10701134Y-14469698D02*
X10663039Y-14469698D01*
X10663039Y-14469698D02*
X10643991Y-14479222D01*
X10643991Y-14479222D02*
X10634467Y-14488746D01*
X10634467Y-14488746D02*
X10624944Y-14507793D01*
X10624944Y-14507793D02*
X10624944Y-14545888D01*
X10624944Y-14545888D02*
X10634467Y-14564936D01*
X10634467Y-14564936D02*
X10643991Y-14574460D01*
X10643991Y-14574460D02*
X10663039Y-14583984D01*
X10663039Y-14583984D02*
X10701134Y-14583984D01*
X10701134Y-14583984D02*
X10720182Y-14574460D01*
X10720182Y-14574460D02*
X10729705Y-14564936D01*
X10729705Y-14564936D02*
X10739229Y-14545888D01*
X10739229Y-14545888D02*
X10739229Y-14507793D01*
X10739229Y-14507793D02*
X10729705Y-14488746D01*
X10729705Y-14488746D02*
X10720182Y-14479222D01*
X10720182Y-14479222D02*
X10701134Y-14469698D01*
X10863039Y-14383984D02*
X10882086Y-14383984D01*
X10882086Y-14383984D02*
X10901134Y-14393508D01*
X10901134Y-14393508D02*
X10910658Y-14403031D01*
X10910658Y-14403031D02*
X10920182Y-14422079D01*
X10920182Y-14422079D02*
X10929705Y-14460174D01*
X10929705Y-14460174D02*
X10929705Y-14507793D01*
X10929705Y-14507793D02*
X10920182Y-14545888D01*
X10920182Y-14545888D02*
X10910658Y-14564936D01*
X10910658Y-14564936D02*
X10901134Y-14574460D01*
X10901134Y-14574460D02*
X10882086Y-14583984D01*
X10882086Y-14583984D02*
X10863039Y-14583984D01*
X10863039Y-14583984D02*
X10843991Y-14574460D01*
X10843991Y-14574460D02*
X10834467Y-14564936D01*
X10834467Y-14564936D02*
X10824944Y-14545888D01*
X10824944Y-14545888D02*
X10815420Y-14507793D01*
X10815420Y-14507793D02*
X10815420Y-14460174D01*
X10815420Y-14460174D02*
X10824944Y-14422079D01*
X10824944Y-14422079D02*
X10834467Y-14403031D01*
X10834467Y-14403031D02*
X10843991Y-14393508D01*
X10843991Y-14393508D02*
X10863039Y-14383984D01*
X11015420Y-14583984D02*
X11015420Y-14450650D01*
X11015420Y-14469698D02*
X11024944Y-14460174D01*
X11024944Y-14460174D02*
X11043991Y-14450650D01*
X11043991Y-14450650D02*
X11072563Y-14450650D01*
X11072563Y-14450650D02*
X11091610Y-14460174D01*
X11091610Y-14460174D02*
X11101134Y-14479222D01*
X11101134Y-14479222D02*
X11101134Y-14583984D01*
X11101134Y-14479222D02*
X11110658Y-14460174D01*
X11110658Y-14460174D02*
X11129705Y-14450650D01*
X11129705Y-14450650D02*
X11158277Y-14450650D01*
X11158277Y-14450650D02*
X11177325Y-14460174D01*
X11177325Y-14460174D02*
X11186848Y-14479222D01*
X11186848Y-14479222D02*
X11186848Y-14583984D01*
X11282086Y-14583984D02*
X11282086Y-14450650D01*
X11282086Y-14469698D02*
X11291610Y-14460174D01*
X11291610Y-14460174D02*
X11310658Y-14450650D01*
X11310658Y-14450650D02*
X11339229Y-14450650D01*
X11339229Y-14450650D02*
X11358277Y-14460174D01*
X11358277Y-14460174D02*
X11367801Y-14479222D01*
X11367801Y-14479222D02*
X11367801Y-14583984D01*
X11367801Y-14479222D02*
X11377324Y-14460174D01*
X11377324Y-14460174D02*
X11396372Y-14450650D01*
X11396372Y-14450650D02*
X11424943Y-14450650D01*
X11424943Y-14450650D02*
X11443991Y-14460174D01*
X11443991Y-14460174D02*
X11453515Y-14479222D01*
X11453515Y-14479222D02*
X11453515Y-14583984D01*
X11843991Y-14374460D02*
X11672563Y-14631603D01*
X12101134Y-14383984D02*
X12120182Y-14383984D01*
X12120182Y-14383984D02*
X12139229Y-14393508D01*
X12139229Y-14393508D02*
X12148753Y-14403031D01*
X12148753Y-14403031D02*
X12158277Y-14422079D01*
X12158277Y-14422079D02*
X12167801Y-14460174D01*
X12167801Y-14460174D02*
X12167801Y-14507793D01*
X12167801Y-14507793D02*
X12158277Y-14545888D01*
X12158277Y-14545888D02*
X12148753Y-14564936D01*
X12148753Y-14564936D02*
X12139229Y-14574460D01*
X12139229Y-14574460D02*
X12120182Y-14583984D01*
X12120182Y-14583984D02*
X12101134Y-14583984D01*
X12101134Y-14583984D02*
X12082086Y-14574460D01*
X12082086Y-14574460D02*
X12072563Y-14564936D01*
X12072563Y-14564936D02*
X12063039Y-14545888D01*
X12063039Y-14545888D02*
X12053515Y-14507793D01*
X12053515Y-14507793D02*
X12053515Y-14460174D01*
X12053515Y-14460174D02*
X12063039Y-14422079D01*
X12063039Y-14422079D02*
X12072563Y-14403031D01*
X12072563Y-14403031D02*
X12082086Y-14393508D01*
X12082086Y-14393508D02*
X12101134Y-14383984D01*
X12253515Y-14564936D02*
X12263039Y-14574460D01*
X12263039Y-14574460D02*
X12253515Y-14583984D01*
X12253515Y-14583984D02*
X12243991Y-14574460D01*
X12243991Y-14574460D02*
X12253515Y-14564936D01*
X12253515Y-14564936D02*
X12253515Y-14583984D01*
X12386848Y-14383984D02*
X12405896Y-14383984D01*
X12405896Y-14383984D02*
X12424944Y-14393508D01*
X12424944Y-14393508D02*
X12434467Y-14403031D01*
X12434467Y-14403031D02*
X12443991Y-14422079D01*
X12443991Y-14422079D02*
X12453515Y-14460174D01*
X12453515Y-14460174D02*
X12453515Y-14507793D01*
X12453515Y-14507793D02*
X12443991Y-14545888D01*
X12443991Y-14545888D02*
X12434467Y-14564936D01*
X12434467Y-14564936D02*
X12424944Y-14574460D01*
X12424944Y-14574460D02*
X12405896Y-14583984D01*
X12405896Y-14583984D02*
X12386848Y-14583984D01*
X12386848Y-14583984D02*
X12367801Y-14574460D01*
X12367801Y-14574460D02*
X12358277Y-14564936D01*
X12358277Y-14564936D02*
X12348753Y-14545888D01*
X12348753Y-14545888D02*
X12339229Y-14507793D01*
X12339229Y-14507793D02*
X12339229Y-14460174D01*
X12339229Y-14460174D02*
X12348753Y-14422079D01*
X12348753Y-14422079D02*
X12358277Y-14403031D01*
X12358277Y-14403031D02*
X12367801Y-14393508D01*
X12367801Y-14393508D02*
X12386848Y-14383984D01*
X12520182Y-14383984D02*
X12653515Y-14383984D01*
X12653515Y-14383984D02*
X12567801Y-14583984D01*
X12767801Y-14383984D02*
X12786848Y-14383984D01*
X12786848Y-14383984D02*
X12805896Y-14393508D01*
X12805896Y-14393508D02*
X12815420Y-14403031D01*
X12815420Y-14403031D02*
X12824944Y-14422079D01*
X12824944Y-14422079D02*
X12834467Y-14460174D01*
X12834467Y-14460174D02*
X12834467Y-14507793D01*
X12834467Y-14507793D02*
X12824944Y-14545888D01*
X12824944Y-14545888D02*
X12815420Y-14564936D01*
X12815420Y-14564936D02*
X12805896Y-14574460D01*
X12805896Y-14574460D02*
X12786848Y-14583984D01*
X12786848Y-14583984D02*
X12767801Y-14583984D01*
X12767801Y-14583984D02*
X12748753Y-14574460D01*
X12748753Y-14574460D02*
X12739229Y-14564936D01*
X12739229Y-14564936D02*
X12729706Y-14545888D01*
X12729706Y-14545888D02*
X12720182Y-14507793D01*
X12720182Y-14507793D02*
X12720182Y-14460174D01*
X12720182Y-14460174D02*
X12729706Y-14422079D01*
X12729706Y-14422079D02*
X12739229Y-14403031D01*
X12739229Y-14403031D02*
X12748753Y-14393508D01*
X12748753Y-14393508D02*
X12767801Y-14383984D01*
X13024944Y-14583984D02*
X12910658Y-14583984D01*
X12967801Y-14583984D02*
X12967801Y-14383984D01*
X12967801Y-14383984D02*
X12948753Y-14412555D01*
X12948753Y-14412555D02*
X12929706Y-14431603D01*
X12929706Y-14431603D02*
X12910658Y-14441127D01*
X13101134Y-14383984D02*
X13101134Y-14422079D01*
X13177325Y-14383984D02*
X13177325Y-14422079D01*
X13472563Y-14660174D02*
X13463039Y-14650650D01*
X13463039Y-14650650D02*
X13443991Y-14622079D01*
X13443991Y-14622079D02*
X13434468Y-14603031D01*
X13434468Y-14603031D02*
X13424944Y-14574460D01*
X13424944Y-14574460D02*
X13415420Y-14526841D01*
X13415420Y-14526841D02*
X13415420Y-14488746D01*
X13415420Y-14488746D02*
X13424944Y-14441127D01*
X13424944Y-14441127D02*
X13434468Y-14412555D01*
X13434468Y-14412555D02*
X13443991Y-14393508D01*
X13443991Y-14393508D02*
X13463039Y-14364936D01*
X13463039Y-14364936D02*
X13472563Y-14355412D01*
X13577325Y-14469698D02*
X13558277Y-14460174D01*
X13558277Y-14460174D02*
X13548753Y-14450650D01*
X13548753Y-14450650D02*
X13539229Y-14431603D01*
X13539229Y-14431603D02*
X13539229Y-14422079D01*
X13539229Y-14422079D02*
X13548753Y-14403031D01*
X13548753Y-14403031D02*
X13558277Y-14393508D01*
X13558277Y-14393508D02*
X13577325Y-14383984D01*
X13577325Y-14383984D02*
X13615420Y-14383984D01*
X13615420Y-14383984D02*
X13634468Y-14393508D01*
X13634468Y-14393508D02*
X13643991Y-14403031D01*
X13643991Y-14403031D02*
X13653515Y-14422079D01*
X13653515Y-14422079D02*
X13653515Y-14431603D01*
X13653515Y-14431603D02*
X13643991Y-14450650D01*
X13643991Y-14450650D02*
X13634468Y-14460174D01*
X13634468Y-14460174D02*
X13615420Y-14469698D01*
X13615420Y-14469698D02*
X13577325Y-14469698D01*
X13577325Y-14469698D02*
X13558277Y-14479222D01*
X13558277Y-14479222D02*
X13548753Y-14488746D01*
X13548753Y-14488746D02*
X13539229Y-14507793D01*
X13539229Y-14507793D02*
X13539229Y-14545888D01*
X13539229Y-14545888D02*
X13548753Y-14564936D01*
X13548753Y-14564936D02*
X13558277Y-14574460D01*
X13558277Y-14574460D02*
X13577325Y-14583984D01*
X13577325Y-14583984D02*
X13615420Y-14583984D01*
X13615420Y-14583984D02*
X13634468Y-14574460D01*
X13634468Y-14574460D02*
X13643991Y-14564936D01*
X13643991Y-14564936D02*
X13653515Y-14545888D01*
X13653515Y-14545888D02*
X13653515Y-14507793D01*
X13653515Y-14507793D02*
X13643991Y-14488746D01*
X13643991Y-14488746D02*
X13634468Y-14479222D01*
X13634468Y-14479222D02*
X13615420Y-14469698D01*
X13891610Y-14583984D02*
X13891610Y-14383984D01*
X13977325Y-14583984D02*
X13977325Y-14479222D01*
X13977325Y-14479222D02*
X13967801Y-14460174D01*
X13967801Y-14460174D02*
X13948753Y-14450650D01*
X13948753Y-14450650D02*
X13920182Y-14450650D01*
X13920182Y-14450650D02*
X13901134Y-14460174D01*
X13901134Y-14460174D02*
X13891610Y-14469698D01*
X14101134Y-14583984D02*
X14082087Y-14574460D01*
X14082087Y-14574460D02*
X14072563Y-14564936D01*
X14072563Y-14564936D02*
X14063039Y-14545888D01*
X14063039Y-14545888D02*
X14063039Y-14488746D01*
X14063039Y-14488746D02*
X14072563Y-14469698D01*
X14072563Y-14469698D02*
X14082087Y-14460174D01*
X14082087Y-14460174D02*
X14101134Y-14450650D01*
X14101134Y-14450650D02*
X14129706Y-14450650D01*
X14129706Y-14450650D02*
X14148753Y-14460174D01*
X14148753Y-14460174D02*
X14158277Y-14469698D01*
X14158277Y-14469698D02*
X14167801Y-14488746D01*
X14167801Y-14488746D02*
X14167801Y-14545888D01*
X14167801Y-14545888D02*
X14158277Y-14564936D01*
X14158277Y-14564936D02*
X14148753Y-14574460D01*
X14148753Y-14574460D02*
X14129706Y-14583984D01*
X14129706Y-14583984D02*
X14101134Y-14583984D01*
X14282087Y-14583984D02*
X14263039Y-14574460D01*
X14263039Y-14574460D02*
X14253515Y-14555412D01*
X14253515Y-14555412D02*
X14253515Y-14383984D01*
X14434468Y-14574460D02*
X14415420Y-14583984D01*
X14415420Y-14583984D02*
X14377325Y-14583984D01*
X14377325Y-14583984D02*
X14358277Y-14574460D01*
X14358277Y-14574460D02*
X14348753Y-14555412D01*
X14348753Y-14555412D02*
X14348753Y-14479222D01*
X14348753Y-14479222D02*
X14358277Y-14460174D01*
X14358277Y-14460174D02*
X14377325Y-14450650D01*
X14377325Y-14450650D02*
X14415420Y-14450650D01*
X14415420Y-14450650D02*
X14434468Y-14460174D01*
X14434468Y-14460174D02*
X14443991Y-14479222D01*
X14443991Y-14479222D02*
X14443991Y-14498269D01*
X14443991Y-14498269D02*
X14348753Y-14517317D01*
X14520182Y-14574460D02*
X14539230Y-14583984D01*
X14539230Y-14583984D02*
X14577325Y-14583984D01*
X14577325Y-14583984D02*
X14596372Y-14574460D01*
X14596372Y-14574460D02*
X14605896Y-14555412D01*
X14605896Y-14555412D02*
X14605896Y-14545888D01*
X14605896Y-14545888D02*
X14596372Y-14526841D01*
X14596372Y-14526841D02*
X14577325Y-14517317D01*
X14577325Y-14517317D02*
X14548753Y-14517317D01*
X14548753Y-14517317D02*
X14529706Y-14507793D01*
X14529706Y-14507793D02*
X14520182Y-14488746D01*
X14520182Y-14488746D02*
X14520182Y-14479222D01*
X14520182Y-14479222D02*
X14529706Y-14460174D01*
X14529706Y-14460174D02*
X14548753Y-14450650D01*
X14548753Y-14450650D02*
X14577325Y-14450650D01*
X14577325Y-14450650D02*
X14596372Y-14460174D01*
X14672563Y-14660174D02*
X14682087Y-14650650D01*
X14682087Y-14650650D02*
X14701134Y-14622079D01*
X14701134Y-14622079D02*
X14710658Y-14603031D01*
X14710658Y-14603031D02*
X14720182Y-14574460D01*
X14720182Y-14574460D02*
X14729706Y-14526841D01*
X14729706Y-14526841D02*
X14729706Y-14488746D01*
X14729706Y-14488746D02*
X14720182Y-14441127D01*
X14720182Y-14441127D02*
X14710658Y-14412555D01*
X14710658Y-14412555D02*
X14701134Y-14393508D01*
X14701134Y-14393508D02*
X14682087Y-14364936D01*
X14682087Y-14364936D02*
X14672563Y-14355412D01*
X15034468Y-14660174D02*
X15024944Y-14650650D01*
X15024944Y-14650650D02*
X15005896Y-14622079D01*
X15005896Y-14622079D02*
X14996372Y-14603031D01*
X14996372Y-14603031D02*
X14986849Y-14574460D01*
X14986849Y-14574460D02*
X14977325Y-14526841D01*
X14977325Y-14526841D02*
X14977325Y-14488746D01*
X14977325Y-14488746D02*
X14986849Y-14441127D01*
X14986849Y-14441127D02*
X14996372Y-14412555D01*
X14996372Y-14412555D02*
X15005896Y-14393508D01*
X15005896Y-14393508D02*
X15024944Y-14364936D01*
X15024944Y-14364936D02*
X15034468Y-14355412D01*
X15110658Y-14450650D02*
X15110658Y-14583984D01*
X15110658Y-14469698D02*
X15120182Y-14460174D01*
X15120182Y-14460174D02*
X15139230Y-14450650D01*
X15139230Y-14450650D02*
X15167801Y-14450650D01*
X15167801Y-14450650D02*
X15186849Y-14460174D01*
X15186849Y-14460174D02*
X15196372Y-14479222D01*
X15196372Y-14479222D02*
X15196372Y-14583984D01*
X15320182Y-14583984D02*
X15301134Y-14574460D01*
X15301134Y-14574460D02*
X15291611Y-14564936D01*
X15291611Y-14564936D02*
X15282087Y-14545888D01*
X15282087Y-14545888D02*
X15282087Y-14488746D01*
X15282087Y-14488746D02*
X15291611Y-14469698D01*
X15291611Y-14469698D02*
X15301134Y-14460174D01*
X15301134Y-14460174D02*
X15320182Y-14450650D01*
X15320182Y-14450650D02*
X15348753Y-14450650D01*
X15348753Y-14450650D02*
X15367801Y-14460174D01*
X15367801Y-14460174D02*
X15377325Y-14469698D01*
X15377325Y-14469698D02*
X15386849Y-14488746D01*
X15386849Y-14488746D02*
X15386849Y-14545888D01*
X15386849Y-14545888D02*
X15377325Y-14564936D01*
X15377325Y-14564936D02*
X15367801Y-14574460D01*
X15367801Y-14574460D02*
X15348753Y-14583984D01*
X15348753Y-14583984D02*
X15320182Y-14583984D01*
X15443992Y-14450650D02*
X15520182Y-14450650D01*
X15472563Y-14383984D02*
X15472563Y-14555412D01*
X15472563Y-14555412D02*
X15482087Y-14574460D01*
X15482087Y-14574460D02*
X15501134Y-14583984D01*
X15501134Y-14583984D02*
X15520182Y-14583984D01*
X15739230Y-14450650D02*
X15739230Y-14650650D01*
X15739230Y-14460174D02*
X15758277Y-14450650D01*
X15758277Y-14450650D02*
X15796373Y-14450650D01*
X15796373Y-14450650D02*
X15815420Y-14460174D01*
X15815420Y-14460174D02*
X15824944Y-14469698D01*
X15824944Y-14469698D02*
X15834468Y-14488746D01*
X15834468Y-14488746D02*
X15834468Y-14545888D01*
X15834468Y-14545888D02*
X15824944Y-14564936D01*
X15824944Y-14564936D02*
X15815420Y-14574460D01*
X15815420Y-14574460D02*
X15796373Y-14583984D01*
X15796373Y-14583984D02*
X15758277Y-14583984D01*
X15758277Y-14583984D02*
X15739230Y-14574460D01*
X15948753Y-14583984D02*
X15929706Y-14574460D01*
X15929706Y-14574460D02*
X15920182Y-14555412D01*
X15920182Y-14555412D02*
X15920182Y-14383984D01*
X16110658Y-14583984D02*
X16110658Y-14479222D01*
X16110658Y-14479222D02*
X16101134Y-14460174D01*
X16101134Y-14460174D02*
X16082087Y-14450650D01*
X16082087Y-14450650D02*
X16043992Y-14450650D01*
X16043992Y-14450650D02*
X16024944Y-14460174D01*
X16110658Y-14574460D02*
X16091611Y-14583984D01*
X16091611Y-14583984D02*
X16043992Y-14583984D01*
X16043992Y-14583984D02*
X16024944Y-14574460D01*
X16024944Y-14574460D02*
X16015420Y-14555412D01*
X16015420Y-14555412D02*
X16015420Y-14536365D01*
X16015420Y-14536365D02*
X16024944Y-14517317D01*
X16024944Y-14517317D02*
X16043992Y-14507793D01*
X16043992Y-14507793D02*
X16091611Y-14507793D01*
X16091611Y-14507793D02*
X16110658Y-14498269D01*
X16177325Y-14450650D02*
X16253515Y-14450650D01*
X16205896Y-14383984D02*
X16205896Y-14555412D01*
X16205896Y-14555412D02*
X16215420Y-14574460D01*
X16215420Y-14574460D02*
X16234468Y-14583984D01*
X16234468Y-14583984D02*
X16253515Y-14583984D01*
X16396373Y-14574460D02*
X16377325Y-14583984D01*
X16377325Y-14583984D02*
X16339230Y-14583984D01*
X16339230Y-14583984D02*
X16320182Y-14574460D01*
X16320182Y-14574460D02*
X16310658Y-14555412D01*
X16310658Y-14555412D02*
X16310658Y-14479222D01*
X16310658Y-14479222D02*
X16320182Y-14460174D01*
X16320182Y-14460174D02*
X16339230Y-14450650D01*
X16339230Y-14450650D02*
X16377325Y-14450650D01*
X16377325Y-14450650D02*
X16396373Y-14460174D01*
X16396373Y-14460174D02*
X16405896Y-14479222D01*
X16405896Y-14479222D02*
X16405896Y-14498269D01*
X16405896Y-14498269D02*
X16310658Y-14517317D01*
X16577325Y-14583984D02*
X16577325Y-14383984D01*
X16577325Y-14574460D02*
X16558277Y-14583984D01*
X16558277Y-14583984D02*
X16520182Y-14583984D01*
X16520182Y-14583984D02*
X16501134Y-14574460D01*
X16501134Y-14574460D02*
X16491611Y-14564936D01*
X16491611Y-14564936D02*
X16482087Y-14545888D01*
X16482087Y-14545888D02*
X16482087Y-14488746D01*
X16482087Y-14488746D02*
X16491611Y-14469698D01*
X16491611Y-14469698D02*
X16501134Y-14460174D01*
X16501134Y-14460174D02*
X16520182Y-14450650D01*
X16520182Y-14450650D02*
X16558277Y-14450650D01*
X16558277Y-14450650D02*
X16577325Y-14460174D01*
X16653515Y-14660174D02*
X16663039Y-14650650D01*
X16663039Y-14650650D02*
X16682087Y-14622079D01*
X16682087Y-14622079D02*
X16691611Y-14603031D01*
X16691611Y-14603031D02*
X16701134Y-14574460D01*
X16701134Y-14574460D02*
X16710658Y-14526841D01*
X16710658Y-14526841D02*
X16710658Y-14488746D01*
X16710658Y-14488746D02*
X16701134Y-14441127D01*
X16701134Y-14441127D02*
X16691611Y-14412555D01*
X16691611Y-14412555D02*
X16682087Y-14393508D01*
X16682087Y-14393508D02*
X16663039Y-14364936D01*
X16663039Y-14364936D02*
X16653515Y-14355412D01*
M02*
