M48
; DRILL file {KiCad 8.0.7} date 2026-01-30T11:33:50+0900
; FORMAT={-:-/ absolute / metric / decimal}
; #@! TF.CreationDate,2026-01-30T11:33:50+09:00
; #@! TF.GenerationSoftware,Kicad,Pcbnew,8.0.7
; #@! TF.FileFunction,Plated,1,2,PTH
FMAT,2
METRIC
; #@! TA.AperFunction,Plated,PTH,ViaDrill
T1C0.300
; #@! TA.AperFunction,Plated,PTH,ComponentDrill
T2C0.600
; #@! TA.AperFunction,Plated,PTH,ComponentDrill
T3C0.700
; #@! TA.AperFunction,Plated,PTH,ComponentDrill
T4C0.750
; #@! TA.AperFunction,Plated,PTH,ComponentDrill
T5C0.800
; #@! TA.AperFunction,Plated,PTH,ComponentDrill
T6C0.900
; #@! TA.AperFunction,Plated,PTH,ComponentDrill
T7C1.000
; #@! TA.AperFunction,Plated,PTH,ComponentDrill
T8C1.000
; #@! TA.AperFunction,Plated,PTH,ComponentDrill
T9C1.100
; #@! TA.AperFunction,Plated,PTH,ComponentDrill
T10C3.400
%
G90
G05
T1
X101.5Y-76.8
X101.5Y-81.8
X101.5Y-125.8
X101.5Y-130.8
X101.6Y-68.5
X101.6Y-71.8
X101.6Y-117.5
X101.6Y-120.8
X103.4Y-49.5
X103.4Y-52.0
X103.4Y-57.0
X103.4Y-59.5
X103.4Y-62.0
X103.4Y-64.5
X103.4Y-72.0
X103.4Y-74.5
X103.4Y-77.0
X103.4Y-79.5
X103.4Y-98.5
X103.4Y-101.0
X103.4Y-106.0
X103.4Y-108.5
X103.4Y-111.0
X103.4Y-113.5
X103.4Y-121.0
X103.4Y-123.5
X103.4Y-126.0
X103.4Y-128.5
X105.9Y-49.5
X105.9Y-54.5
X105.9Y-57.0
X105.9Y-59.5
X105.9Y-62.0
X105.9Y-64.5
X105.9Y-70.0
X105.9Y-98.5
X105.9Y-103.5
X105.9Y-106.0
X105.9Y-108.5
X105.9Y-111.0
X105.9Y-113.5
X105.9Y-119.0
X106.2Y-81.1
X106.2Y-130.1
X108.2Y-88.4
X108.2Y-137.4
X108.4Y-42.0
X108.4Y-47.0
X108.4Y-53.2
X108.4Y-57.0
X108.4Y-59.5
X108.4Y-62.0
X108.4Y-64.5
X108.4Y-69.5
X108.4Y-82.0
X108.4Y-91.0
X108.4Y-96.0
X108.4Y-102.2
X108.4Y-106.0
X108.4Y-108.5
X108.4Y-111.0
X108.4Y-113.5
X108.4Y-118.5
X108.4Y-131.0
X109.7Y-71.5
X109.7Y-120.5
X110.3Y-80.8
X110.3Y-129.8
X110.4Y-64.7
X110.4Y-113.7
X110.9Y-42.0
X110.9Y-44.5
X110.9Y-47.0
X110.9Y-49.5
X110.9Y-52.0
X110.9Y-54.5
X110.9Y-57.0
X110.9Y-59.5
X110.9Y-62.0
X110.9Y-67.0
X110.9Y-84.5
X110.9Y-87.0
X110.9Y-91.0
X110.9Y-93.5
X110.9Y-96.0
X110.9Y-98.5
X110.9Y-101.0
X110.9Y-103.5
X110.9Y-106.0
X110.9Y-108.5
X110.9Y-111.0
X110.9Y-116.0
X110.9Y-133.5
X110.9Y-136.0
X112.8Y-67.4
X112.8Y-116.4
X113.1Y-70.9
X113.1Y-119.9
X113.4Y-42.0
X113.4Y-44.5
X113.4Y-47.0
X113.4Y-52.0
X113.4Y-54.5
X113.4Y-57.0
X113.4Y-59.5
X113.4Y-62.0
X113.4Y-64.5
X113.4Y-72.0
X113.4Y-74.5
X113.4Y-87.0
X113.4Y-91.0
X113.4Y-93.5
X113.4Y-96.0
X113.4Y-101.0
X113.4Y-103.5
X113.4Y-106.0
X113.4Y-108.5
X113.4Y-111.0
X113.4Y-113.5
X113.4Y-121.0
X113.4Y-123.5
X113.4Y-136.0
X114.7Y-49.9
X114.7Y-85.5
X114.7Y-98.9
X114.7Y-134.5
X115.7Y-68.7
X115.7Y-117.7
X115.9Y-42.0
X115.9Y-44.5
X115.9Y-52.0
X115.9Y-74.5
X115.9Y-87.0
X115.9Y-91.0
X115.9Y-93.5
X115.9Y-101.0
X115.9Y-123.5
X115.9Y-136.0
X116.0Y-46.5
X116.0Y-95.5
X117.5Y-64.3
X117.5Y-113.3
X118.1Y-70.7
X118.1Y-119.7
X118.4Y-42.0
X118.4Y-44.5
X118.4Y-47.0
X118.4Y-49.5
X118.4Y-87.0
X118.4Y-91.0
X118.4Y-93.5
X118.4Y-96.0
X118.4Y-98.5
X118.4Y-136.0
X119.2Y-63.7
X119.2Y-112.7
X119.4Y-72.3
X119.4Y-76.0
X119.4Y-121.3
X119.4Y-125.0
X119.6Y-51.3
X119.6Y-67.3
X119.6Y-100.3
X119.6Y-116.3
X119.8Y-57.0
X119.8Y-106.0
X119.9Y-54.8
X119.9Y-103.8
X120.9Y-42.0
X120.9Y-44.5
X120.9Y-74.5
X120.9Y-82.0
X120.9Y-84.5
X120.9Y-87.0
X120.9Y-91.0
X120.9Y-93.5
X120.9Y-123.5
X120.9Y-131.0
X120.9Y-133.5
X120.9Y-136.0
X121.0Y-76.3
X121.0Y-125.3
X122.0Y-47.5
X122.0Y-96.5
X122.2Y-49.8
X122.2Y-98.8
X122.3Y-56.5
X122.3Y-59.3
X122.3Y-62.5
X122.3Y-65.9
X122.3Y-105.5
X122.3Y-108.3
X122.3Y-111.5
X122.3Y-114.9
X122.4Y-53.5
X122.4Y-102.5
X123.4Y-42.0
X123.4Y-74.5
X123.4Y-82.0
X123.4Y-84.5
X123.4Y-87.0
X123.4Y-91.0
X123.4Y-123.5
X123.4Y-131.0
X123.4Y-133.5
X123.4Y-136.0
X124.7Y-51.7
X124.7Y-100.7
X124.8Y-67.4
X124.8Y-116.4
X125.0Y-64.7
X125.0Y-113.7
X125.4Y-45.6
X125.4Y-94.6
X125.8Y-49.7
X125.8Y-98.7
X125.9Y-42.0
X125.9Y-69.5
X125.9Y-72.0
X125.9Y-82.0
X125.9Y-84.5
X125.9Y-87.0
X125.9Y-91.0
X125.9Y-118.5
X125.9Y-121.0
X125.9Y-131.0
X125.9Y-133.5
X125.9Y-136.0
X128.4Y-42.0
X128.4Y-72.0
X128.4Y-82.0
X128.4Y-84.5
X128.4Y-87.0
X128.4Y-91.0
X128.4Y-121.0
X128.4Y-131.0
X128.4Y-133.5
X128.4Y-136.0
X128.5Y-70.1
X128.5Y-119.1
X129.6Y-67.6
X129.6Y-116.6
X130.9Y-42.0
X130.9Y-47.0
X130.9Y-49.5
X130.9Y-54.5
X130.9Y-72.0
X130.9Y-87.0
X130.9Y-91.0
X130.9Y-96.0
X130.9Y-98.5
X130.9Y-103.5
X130.9Y-121.0
X130.9Y-136.0
X131.1Y-62.5
X131.1Y-111.5
X132.3Y-85.5
X132.3Y-134.5
X132.4Y-68.8
X132.4Y-117.8
X133.4Y-42.0
X133.4Y-49.5
X133.4Y-54.5
X133.4Y-72.0
X133.4Y-87.0
X133.4Y-91.0
X133.4Y-98.5
X133.4Y-103.5
X133.4Y-121.0
X133.4Y-136.0
X134.0Y-63.2
X134.0Y-112.2
X134.4Y-65.9
X134.4Y-114.9
X135.3Y-47.9
X135.3Y-96.9
X135.9Y-42.0
X135.9Y-44.5
X135.9Y-49.5
X135.9Y-54.5
X135.9Y-57.0
X135.9Y-59.5
X135.9Y-74.5
X135.9Y-87.0
X135.9Y-91.0
X135.9Y-93.5
X135.9Y-98.5
X135.9Y-103.5
X135.9Y-106.0
X135.9Y-108.5
X135.9Y-123.5
X135.9Y-136.0
X137.4Y-62.2
X137.4Y-111.2
X137.5Y-65.0
X137.5Y-68.8
X137.5Y-114.0
X137.5Y-117.8
X138.4Y-42.0
X138.4Y-44.5
X138.4Y-49.5
X138.4Y-87.0
X138.4Y-91.0
X138.4Y-93.5
X138.4Y-98.5
X138.4Y-136.0
X140.9Y-42.0
X140.9Y-44.5
X140.9Y-49.5
X140.9Y-54.5
X140.9Y-57.0
X140.9Y-59.5
X140.9Y-62.0
X140.9Y-67.0
X140.9Y-84.0
X140.9Y-87.0
X140.9Y-91.0
X140.9Y-93.5
X140.9Y-98.5
X140.9Y-103.5
X140.9Y-106.0
X140.9Y-108.5
X140.9Y-111.0
X140.9Y-116.0
X140.9Y-133.0
X140.9Y-136.0
X141.4Y-79.7
X141.4Y-128.7
X141.6Y-77.4
X141.6Y-126.4
X142.5Y-81.9
X142.5Y-130.9
X143.4Y-42.0
X143.4Y-44.5
X143.4Y-49.5
X143.4Y-67.0
X143.4Y-79.5
X143.4Y-87.0
X143.4Y-91.0
X143.4Y-93.5
X143.4Y-98.5
X143.4Y-116.0
X143.4Y-128.5
X143.4Y-136.0
X143.5Y-53.0
X143.5Y-102.0
X145.9Y-42.0
X145.9Y-44.5
X145.9Y-49.5
X145.9Y-54.5
X145.9Y-57.0
X145.9Y-59.5
X145.9Y-67.0
X145.9Y-77.0
X145.9Y-79.5
X145.9Y-82.0
X145.9Y-84.5
X145.9Y-87.0
X145.9Y-91.0
X145.9Y-93.5
X145.9Y-98.5
X145.9Y-103.5
X145.9Y-106.0
X145.9Y-108.5
X145.9Y-116.0
X145.9Y-126.0
X145.9Y-128.5
X145.9Y-131.0
X145.9Y-133.5
X145.9Y-136.0
X146.9Y-78.3
X146.9Y-127.3
X148.4Y-42.0
X148.4Y-44.5
X148.4Y-49.5
X148.4Y-54.5
X148.4Y-57.0
X148.4Y-59.5
X148.4Y-62.0
X148.4Y-67.0
X148.4Y-69.5
X148.4Y-79.5
X148.4Y-82.0
X148.4Y-84.5
X148.4Y-87.0
X148.4Y-91.0
X148.4Y-93.5
X148.4Y-98.5
X148.4Y-103.5
X148.4Y-106.0
X148.4Y-108.5
X148.4Y-111.0
X148.4Y-116.0
X148.4Y-118.5
X148.4Y-128.5
X148.4Y-131.0
X148.4Y-133.5
X148.4Y-136.0
X150.9Y-42.0
X150.9Y-44.5
X150.9Y-49.5
X150.9Y-52.0
X150.9Y-64.5
X150.9Y-67.0
X150.9Y-69.5
X150.9Y-82.0
X150.9Y-84.5
X150.9Y-87.0
X150.9Y-91.0
X150.9Y-93.5
X150.9Y-98.5
X150.9Y-101.0
X150.9Y-113.5
X150.9Y-116.0
X150.9Y-118.5
X150.9Y-131.0
X150.9Y-133.5
X150.9Y-136.0
X152.7Y-80.3
X152.7Y-129.3
X153.4Y-42.0
X153.4Y-52.0
X153.4Y-54.5
X153.4Y-62.0
X153.4Y-64.5
X153.4Y-67.0
X153.4Y-69.5
X153.4Y-74.5
X153.4Y-82.0
X153.4Y-84.5
X153.4Y-87.0
X153.4Y-91.0
X153.4Y-101.0
X153.4Y-103.5
X153.4Y-111.0
X153.4Y-113.5
X153.4Y-116.0
X153.4Y-118.5
X153.4Y-123.5
X153.4Y-131.0
X153.4Y-133.5
X153.4Y-136.0
X155.9Y-42.0
X155.9Y-44.5
X155.9Y-49.5
X155.9Y-54.5
X155.9Y-57.0
X155.9Y-64.5
X155.9Y-67.0
X155.9Y-69.5
X155.9Y-87.0
X155.9Y-91.0
X155.9Y-93.5
X155.9Y-98.5
X155.9Y-103.5
X155.9Y-106.0
X155.9Y-113.5
X155.9Y-116.0
X155.9Y-118.5
X155.9Y-136.0
X156.1Y-80.3
X156.1Y-129.3
X157.1Y-51.0
X157.1Y-100.0
X157.4Y-74.2
X157.4Y-123.2
X158.1Y-88.0
X158.1Y-137.0
X158.4Y-42.0
X158.4Y-44.5
X158.4Y-47.0
X158.4Y-49.5
X158.4Y-52.0
X158.4Y-54.5
X158.4Y-57.0
X158.4Y-80.2
X158.4Y-91.0
X158.4Y-93.5
X158.4Y-96.0
X158.4Y-98.5
X158.4Y-101.0
X158.4Y-103.5
X158.4Y-106.0
X158.4Y-129.2
X160.9Y-42.0
X160.9Y-44.5
X160.9Y-47.0
X160.9Y-91.0
X160.9Y-93.5
X160.9Y-96.0
X161.4Y-88.0
X161.4Y-137.0
X161.9Y-48.6
X161.9Y-97.6
X162.0Y-56.0
X162.0Y-105.0
X162.1Y-53.5
X162.1Y-102.5
X163.4Y-42.0
X163.4Y-44.5
X163.4Y-91.0
X163.4Y-93.5
X165.6Y-56.4
X165.6Y-105.4
X165.9Y-47.0
X165.9Y-49.5
X165.9Y-52.0
X165.9Y-54.5
X165.9Y-96.0
X165.9Y-98.5
X165.9Y-101.0
X165.9Y-103.5
X167.8Y-71.4
X167.8Y-120.4
X168.4Y-67.9
X168.4Y-116.9
X169.4Y-45.7
X169.4Y-74.5
X169.4Y-94.7
X169.4Y-123.5
X170.4Y-67.9
X170.4Y-116.9
X171.3Y-44.0
X171.3Y-93.0
X171.6Y-48.4
X171.6Y-97.4
X172.1Y-73.6
X172.1Y-122.6
X172.3Y-46.9
X172.3Y-95.9
X173.4Y-49.5
X173.4Y-98.5
X173.8Y-78.0
X173.8Y-127.0
X174.1Y-42.3
X174.1Y-72.3
X174.1Y-91.3
X174.1Y-121.3
X175.9Y-49.5
X175.9Y-98.5
X176.2Y-68.7
X176.2Y-117.7
X176.6Y-42.3
X176.6Y-52.7
X176.6Y-91.3
X176.6Y-101.7
X176.7Y-78.0
X176.7Y-127.0
X177.0Y-75.2
X177.0Y-124.2
X177.1Y-47.8
X177.1Y-51.1
X177.1Y-96.8
X177.1Y-100.1
X177.2Y-66.9
X177.2Y-115.9
X177.3Y-46.3
X177.3Y-71.0
X177.3Y-95.3
X177.3Y-120.0
X179.1Y-42.3
X179.1Y-91.3
X180.1Y-76.3
X180.1Y-125.3
X180.8Y-51.0
X180.8Y-75.0
X180.8Y-100.0
X180.8Y-124.0
X180.9Y-46.1
X180.9Y-79.5
X180.9Y-82.0
X180.9Y-95.1
X180.9Y-128.5
X180.9Y-131.0
X181.0Y-72.7
X181.0Y-121.7
X181.4Y-88.3
X181.4Y-137.3
X181.6Y-42.3
X181.6Y-91.3
X181.9Y-50.0
X181.9Y-99.0
X182.5Y-72.0
X182.5Y-121.0
X183.4Y-82.0
X183.4Y-84.5
X183.4Y-131.0
X183.4Y-133.5
X184.0Y-88.4
X184.0Y-137.4
X184.9Y-45.7
X184.9Y-94.7
X185.6Y-59.1
X185.6Y-108.1
X185.7Y-78.8
X185.7Y-127.8
X185.9Y-82.0
X185.9Y-84.5
X185.9Y-131.0
X185.9Y-133.5
X186.6Y-44.8
X186.6Y-57.3
X186.6Y-93.8
X186.6Y-106.3
X186.7Y-41.8
X186.7Y-90.8
X187.0Y-50.9
X187.0Y-99.9
X187.6Y-83.5
X187.6Y-132.5
X187.7Y-59.1
X187.7Y-108.1
X187.8Y-48.1
X187.8Y-81.7
X187.8Y-88.4
X187.8Y-97.1
X187.8Y-130.7
X187.8Y-137.4
X187.9Y-43.4
X187.9Y-92.4
X188.0Y-46.0
X188.0Y-95.0
X188.4Y-64.5
X188.4Y-113.5
X189.0Y-41.7
X189.0Y-68.2
X189.0Y-90.7
X189.0Y-117.2
X189.1Y-44.8
X189.1Y-54.8
X189.1Y-57.3
X189.1Y-93.8
X189.1Y-103.8
X189.1Y-106.3
X189.2Y-73.2
X189.2Y-122.2
X189.3Y-86.6
X189.3Y-135.6
X189.4Y-62.9
X189.4Y-111.9
X190.9Y-62.0
X190.9Y-64.5
X190.9Y-67.0
X190.9Y-69.5
X190.9Y-72.0
X190.9Y-74.5
X190.9Y-77.0
X190.9Y-84.5
X190.9Y-111.0
X190.9Y-113.5
X190.9Y-116.0
X190.9Y-118.5
X190.9Y-121.0
X190.9Y-123.5
X190.9Y-126.0
X190.9Y-133.5
X191.0Y-44.7
X191.0Y-93.7
X191.6Y-52.9
X191.6Y-57.3
X191.6Y-101.9
X191.6Y-106.3
X191.7Y-55.7
X191.7Y-104.7
X192.6Y-60.3
X192.6Y-109.3
X192.7Y-66.2
X192.7Y-115.2
X192.9Y-41.5
X192.9Y-90.5
X193.4Y-52.0
X193.4Y-54.5
X193.4Y-57.0
X193.4Y-69.5
X193.4Y-72.0
X193.4Y-74.5
X193.4Y-79.5
X193.4Y-82.0
X193.4Y-101.0
X193.4Y-103.5
X193.4Y-106.0
X193.4Y-118.5
X193.4Y-121.0
X193.4Y-123.5
X193.4Y-128.5
X193.4Y-131.0
X195.9Y-49.5
X195.9Y-98.5
X196.5Y-56.4
X196.5Y-61.8
X196.5Y-76.4
X196.5Y-105.4
X196.5Y-110.8
X196.5Y-125.4
X196.7Y-70.4
X196.7Y-119.4
X196.8Y-66.2
X196.8Y-115.2
X198.4Y-52.0
X198.4Y-57.0
X198.4Y-59.5
X198.4Y-62.0
X198.4Y-64.5
X198.4Y-74.5
X198.4Y-101.0
X198.4Y-106.0
X198.4Y-108.5
X198.4Y-111.0
X198.4Y-113.5
X198.4Y-123.5
X199.0Y-70.2
X199.0Y-119.2
T2
X134.5Y-46.5
X134.5Y-95.5
X136.5Y-46.5
X136.5Y-95.5
T3
X103.09Y-69.9
X103.09Y-118.9
X104.375Y-54.6
X104.375Y-103.6
X106.915Y-52.06
X106.915Y-101.06
X109.455Y-54.6
X109.455Y-103.6
X110.71Y-69.9
X110.71Y-118.9
X115.5Y-48.2
X115.5Y-55.82
X115.5Y-97.2
X115.5Y-104.82
X118.48Y-65.9
X118.48Y-114.9
X124.69Y-75.5
X124.69Y-124.5
X126.1Y-65.9
X126.1Y-114.9
X128.7Y-53.39
X128.7Y-61.01
X128.7Y-102.39
X128.7Y-110.01
X132.31Y-75.5
X132.31Y-124.5
X132.6Y-51.59
X132.6Y-59.21
X132.6Y-100.59
X132.6Y-108.21
X134.4Y-67.79
X134.4Y-75.41
X134.4Y-116.79
X134.4Y-124.41
X141.7Y-63.68
X141.7Y-71.3
X141.7Y-112.68
X141.7Y-120.3
X143.716Y-55.54
X143.716Y-104.54
X144.0Y-77.69
X144.0Y-85.31
X144.0Y-126.69
X144.0Y-134.31
X151.336Y-55.54
X151.336Y-104.54
X153.86Y-45.06
X153.86Y-50.14
X153.86Y-94.06
X153.86Y-99.14
X155.7Y-74.3
X155.7Y-81.92
X155.7Y-123.3
X155.7Y-130.92
X156.4Y-47.6
X156.4Y-96.6
X159.1Y-74.3
X159.1Y-81.92
X159.1Y-123.3
X159.1Y-130.92
X161.0Y-62.2
X161.0Y-69.82
X161.0Y-111.2
X161.0Y-118.82
X166.4Y-60.69
X166.4Y-68.31
X166.4Y-109.69
X166.4Y-117.31
X167.48Y-80.1
X167.48Y-129.1
X168.79Y-72.9
X168.79Y-121.9
X169.09Y-65.1
X169.09Y-114.1
X169.8Y-55.1
X169.8Y-62.72
X169.8Y-104.1
X169.8Y-111.72
X173.5Y-55.28
X173.5Y-62.9
X173.5Y-104.28
X173.5Y-111.9
X175.1Y-80.1
X175.1Y-129.1
X175.9Y-54.98
X175.9Y-62.6
X175.9Y-103.98
X175.9Y-111.6
X176.41Y-72.9
X176.41Y-121.9
X176.71Y-65.1
X176.71Y-114.1
X181.6Y-62.5
X181.6Y-70.12
X181.6Y-111.5
X181.6Y-119.12
X181.7Y-76.79
X181.7Y-84.41
X181.7Y-125.79
X181.7Y-133.41
X190.0Y-52.0
X190.0Y-59.62
X190.0Y-101.0
X190.0Y-108.62
X191.2Y-80.39
X191.2Y-88.01
X191.2Y-129.39
X191.2Y-137.01
T4
X142.38Y-75.2
X142.38Y-124.2
X150.0Y-75.2
X150.0Y-124.2
X197.4Y-58.22
X197.4Y-68.38
X197.4Y-107.22
X197.4Y-117.38
T5
X103.26Y-66.6
X103.26Y-115.6
X105.8Y-66.6
X105.8Y-115.6
X108.1Y-48.7
X108.1Y-97.7
X108.34Y-66.6
X108.34Y-115.6
X111.7Y-72.5
X111.7Y-121.5
X113.1Y-48.7
X113.1Y-97.7
X113.38Y-69.1
X113.38Y-118.1
X115.4Y-58.3
X115.4Y-63.3
X115.4Y-107.3
X115.4Y-112.3
X116.7Y-72.5
X116.7Y-121.5
X118.3Y-53.28
X118.3Y-55.82
X118.3Y-58.36
X118.3Y-60.9
X118.3Y-102.28
X118.3Y-104.82
X118.3Y-107.36
X118.3Y-109.9
X121.0Y-69.1
X121.0Y-118.1
X125.92Y-53.28
X125.92Y-55.82
X125.92Y-58.36
X125.92Y-60.9
X125.92Y-102.28
X125.92Y-104.82
X125.92Y-107.36
X125.92Y-109.9
X128.7Y-46.3
X128.7Y-51.3
X128.7Y-95.3
X128.7Y-100.3
X129.2Y-65.0
X129.2Y-114.0
X131.7Y-65.0
X131.7Y-114.0
X139.066Y-53.44
X139.066Y-55.98
X139.066Y-58.52
X139.066Y-61.06
X139.066Y-63.6
X139.066Y-66.14
X139.066Y-68.68
X139.066Y-71.22
X139.066Y-102.44
X139.066Y-104.98
X139.066Y-107.52
X139.066Y-110.06
X139.066Y-112.6
X139.066Y-115.14
X139.066Y-117.68
X139.066Y-120.22
X143.726Y-58.465
X143.726Y-61.005
X143.726Y-107.465
X143.726Y-110.005
X143.786Y-64.64
X143.786Y-113.64
X146.326Y-64.64
X146.326Y-113.64
X148.866Y-64.64
X148.866Y-113.64
X149.466Y-70.94
X149.466Y-119.94
X151.346Y-58.465
X151.346Y-61.005
X151.346Y-107.465
X151.346Y-110.005
X154.466Y-70.94
X154.466Y-119.94
X157.1Y-53.44
X157.1Y-55.98
X157.1Y-58.52
X157.1Y-61.06
X157.1Y-63.6
X157.1Y-66.14
X157.1Y-68.68
X157.1Y-71.22
X157.1Y-102.44
X157.1Y-104.98
X157.1Y-107.52
X157.1Y-110.06
X157.1Y-112.6
X157.1Y-115.14
X157.1Y-117.68
X157.1Y-120.22
X169.22Y-69.6
X169.22Y-118.6
X169.72Y-51.1
X169.72Y-100.1
X169.8Y-47.5
X169.8Y-96.5
X169.9Y-76.1
X169.9Y-125.1
X171.76Y-69.6
X171.76Y-118.6
X172.26Y-51.1
X172.26Y-100.1
X172.44Y-76.1
X172.44Y-125.1
X174.3Y-69.6
X174.3Y-118.6
X174.8Y-47.5
X174.8Y-51.1
X174.8Y-96.5
X174.8Y-100.1
X174.98Y-76.1
X174.98Y-125.1
X181.7Y-47.8
X181.7Y-52.8
X181.7Y-96.8
X181.7Y-101.8
X183.9Y-80.2
X183.9Y-129.2
X184.1Y-52.2
X184.1Y-57.2
X184.1Y-101.2
X184.1Y-106.2
X188.9Y-80.2
X188.9Y-129.2
X193.9Y-49.9
X193.9Y-98.9
X194.0Y-76.6
X194.0Y-125.6
X195.095Y-72.5
X195.095Y-121.5
X195.195Y-54.0
X195.195Y-103.0
X197.595Y-72.5
X197.595Y-121.5
X197.695Y-54.0
X197.695Y-103.0
X198.9Y-49.9
X198.9Y-98.9
X199.0Y-76.6
X199.0Y-125.6
T6
X158.56Y-85.3
X158.56Y-134.3
X161.1Y-85.3
X161.1Y-134.3
X184.56Y-86.3
X184.56Y-135.3
X184.935Y-61.3
X184.935Y-110.3
X187.1Y-86.3
X187.1Y-135.3
X187.475Y-61.3
X187.475Y-110.3
T7
X184.6Y-43.0
X184.6Y-47.5
X184.6Y-92.0
X184.6Y-96.5
X191.1Y-43.0
X191.1Y-47.5
X191.1Y-92.0
X191.1Y-96.5
T8
X105.16Y-73.02
X105.16Y-75.56
X105.16Y-78.1
X105.16Y-122.02
X105.16Y-124.56
X105.16Y-127.1
X107.7Y-73.02
X107.7Y-75.56
X107.7Y-78.1
X107.7Y-122.02
X107.7Y-124.56
X107.7Y-127.1
X114.62Y-78.06
X114.62Y-80.6
X114.62Y-127.06
X114.62Y-129.6
X117.16Y-78.06
X117.16Y-80.6
X117.16Y-127.06
X117.16Y-129.6
X119.7Y-78.06
X119.7Y-80.6
X119.7Y-127.06
X119.7Y-129.6
X122.24Y-78.06
X122.24Y-80.6
X122.24Y-127.06
X122.24Y-129.6
X124.78Y-78.06
X124.78Y-80.6
X124.78Y-127.06
X124.78Y-129.6
X127.32Y-78.06
X127.32Y-80.6
X127.32Y-127.06
X127.32Y-129.6
X129.86Y-78.06
X129.86Y-80.6
X129.86Y-127.06
X129.86Y-129.6
X132.4Y-78.06
X132.4Y-80.6
X132.4Y-127.06
X132.4Y-129.6
X134.94Y-78.06
X134.94Y-80.6
X134.94Y-127.06
X134.94Y-129.6
X137.48Y-78.06
X137.48Y-80.6
X137.48Y-127.06
X137.48Y-129.6
X160.266Y-50.475
X160.266Y-53.015
X160.266Y-99.475
X160.266Y-102.015
X163.8Y-49.64
X163.8Y-52.18
X163.8Y-54.72
X163.8Y-57.26
X163.8Y-59.8
X163.8Y-62.34
X163.8Y-64.88
X163.8Y-67.42
X163.8Y-69.96
X163.8Y-72.5
X163.8Y-75.04
X163.8Y-77.58
X163.8Y-80.12
X163.8Y-82.66
X163.8Y-85.2
X163.8Y-98.64
X163.8Y-101.18
X163.8Y-103.72
X163.8Y-106.26
X163.8Y-108.8
X163.8Y-111.34
X163.8Y-113.88
X163.8Y-116.42
X163.8Y-118.96
X163.8Y-121.5
X163.8Y-124.04
X163.8Y-126.58
X163.8Y-129.12
X163.8Y-131.66
X163.8Y-134.2
X166.9Y-43.7
X166.9Y-92.7
X169.44Y-43.7
X169.44Y-92.7
X179.04Y-49.64
X179.04Y-52.18
X179.04Y-54.72
X179.04Y-57.26
X179.04Y-59.8
X179.04Y-62.34
X179.04Y-64.88
X179.04Y-67.42
X179.04Y-69.96
X179.04Y-72.5
X179.04Y-75.04
X179.04Y-77.58
X179.04Y-80.12
X179.04Y-82.66
X179.04Y-85.2
X179.04Y-98.64
X179.04Y-101.18
X179.04Y-103.72
X179.04Y-106.26
X179.04Y-108.8
X179.04Y-111.34
X179.04Y-113.88
X179.04Y-116.42
X179.04Y-118.96
X179.04Y-121.5
X179.04Y-124.04
X179.04Y-126.58
X179.04Y-129.12
X179.04Y-131.66
X179.04Y-134.2
X184.56Y-66.78
X184.56Y-69.32
X184.56Y-71.86
X184.56Y-74.4
X184.56Y-76.94
X184.56Y-115.78
X184.56Y-118.32
X184.56Y-120.86
X184.56Y-123.4
X184.56Y-125.94
X187.1Y-53.0
X187.1Y-55.54
X187.1Y-66.78
X187.1Y-69.32
X187.1Y-71.86
X187.1Y-74.4
X187.1Y-76.94
X187.1Y-102.0
X187.1Y-104.54
X187.1Y-115.78
X187.1Y-118.32
X187.1Y-120.86
X187.1Y-123.4
X187.1Y-125.94
X195.3Y-79.7
X195.3Y-128.7
X197.84Y-79.7
X197.84Y-128.7
T9
X194.745Y-60.56
X194.745Y-63.1
X194.745Y-65.64
X194.745Y-109.56
X194.745Y-112.1
X194.745Y-114.64
T10
X104.4Y-44.5
X104.4Y-85.5
X104.4Y-93.5
X104.4Y-134.5
X196.4Y-44.5
X196.4Y-85.5
X196.4Y-93.5
X196.4Y-134.5
M30
